<svg width="22" height="34" viewBox="0 0 22 34" fill="none" xmlns="http://www.w3.org/2000/svg">
<path d="M10.9286 0C5.89888 0 1.82147 4.07741 1.82147 9.10715V15.7857H4.25001V9.10715C4.25001 5.41868 7.24009 2.42861 10.9286 2.42861C14.617 2.42861 17.6071 5.41868 17.6071 9.10715V15.7857H20.0356V9.10715C20.0358 4.07741 15.9584 0 10.9286 0Z" fill="#5B5D6E"/>
<path d="M10.9287 34C4.893 34 0.00012207 29.1071 0.00012207 23.0714V15.7857C0.00012207 15.115 0.543723 14.5714 1.21443 14.5714H20.643C21.3136 14.5714 21.8573 15.115 21.8573 15.7857V23.0714C21.8572 29.1071 16.9643 34 10.9287 34Z" fill="#309489"/>
<path d="M13.9643 32.7857C7.92863 32.7857 3.03576 27.8928 3.03576 21.8572V14.5715H1.2143C0.543734 14.5715 0 15.1151 0 15.7858V23.0715C6.64062e-05 29.1071 4.89294 34 10.9286 34C12.946 34 14.8294 33.4437 16.4513 32.4905C15.6512 32.677 14.8212 32.7857 13.9643 32.7857Z" fill="#316C74"/>
<path d="M12.75 22.4643C12.75 21.4583 11.9346 20.6429 10.9286 20.6429C9.92259 20.6429 9.10712 21.4583 9.10712 22.4643C9.10712 23.1985 9.5438 23.8272 10.1696 24.1154V26.1072C10.1696 26.5263 10.5094 26.8661 10.9286 26.8661C11.3477 26.8661 11.6875 26.5263 11.6875 26.1072V24.1154C12.3132 23.8271 12.75 23.1985 12.75 22.4643Z" fill="#464655"/>
<path d="M18.4734 27.7418C18.3554 27.7418 18.2356 27.714 18.1237 27.6558C17.7519 27.4622 17.6072 27.0039 17.8011 26.6321C18.3774 25.5243 18.6697 24.3263 18.6697 23.0714V21.8571C18.6697 21.4379 19.0095 21.0981 19.4287 21.0981C19.8478 21.0981 20.1876 21.4379 20.1876 21.8571V23.0714C20.1876 24.5513 19.8278 26.025 19.1471 27.3329C19.0117 27.5926 18.7474 27.7418 18.4734 27.7418Z" fill="#5ABA8A"/>
<path d="M19.4286 19.9598C19.0094 19.9598 18.6696 19.62 18.6696 19.2008V18.2139C18.6696 17.7948 19.0094 17.455 19.4286 17.455C19.8477 17.455 20.1875 17.7948 20.1875 18.2139V19.2008C20.1875 19.6201 19.8477 19.9598 19.4286 19.9598Z" fill="#5ABA8A"/>
</svg>
